<svg width="14" height="14" viewBox="0 0 14 14" fill="none" xmlns="http://www.w3.org/2000/svg">
<path fill-rule="evenodd" clip-rule="evenodd" d="M13.3333 0H7.99993C7.63174 0 7.33325 0.29849 7.33325 0.666675C7.33325 1.03486 7.63174 1.33335 7.99993 1.33335H11.7238L4.8619 8.19529C4.60154 8.45565 4.60154 8.87772 4.8619 9.13808C4.99203 9.26825 5.16265 9.33333 5.33326 9.33333C5.50388 9.33333 5.67452 9.26828 5.80469 9.13805L12.6666 2.27614V6.00002C12.6666 6.3682 12.9651 6.66669 13.3333 6.66669C13.7015 6.66669 14 6.3682 14 6.00002V0.666675C13.9999 0.29849 13.7014 0 13.3333 0Z" fill="#3573E8"/>
<path fill-rule="evenodd" clip-rule="evenodd" d="M10.5777 6.53313C10.2341 6.53313 9.95552 6.81172 9.95552 7.15536V12.7554H1.24443V4.04424H6.84443C7.18807 4.04424 7.46666 3.76565 7.46666 3.42201C7.46666 3.07837 7.18807 2.7998 6.84443 2.7998H0.622228C0.27859 2.7998 0 3.0784 0 3.42203V13.3776C0 13.7212 0.27859 13.9998 0.622228 13.9998H10.5778C10.9214 13.9998 11.2 13.7212 11.2 13.3776V7.15536C11.2 6.81172 10.9214 6.53313 10.5777 6.53313Z" fill="#3573E8"/>
</svg>
