<svg width="12" height="12" viewBox="0 0 12 12" fill="none" xmlns="http://www.w3.org/2000/svg">
<path fill-rule="evenodd" clip-rule="evenodd" d="M8.97937 8.47184L11.8962 11.388C12.0346 11.5264 12.0346 11.7552 11.8962 11.8936C11.827 11.9654 11.7339 12 11.6434 12C11.5529 12 11.4597 11.9627 11.3906 11.8936L8.47372 8.97738C7.57419 9.75965 6.40053 10.2333 5.11776 10.2333C2.29674 10.2333 0 7.93703 0 5.11663C0 2.29623 2.29408 0 5.11776 0C7.93879 0 10.2355 2.29357 10.2355 5.11663C10.2355 6.39911 9.76181 7.5725 8.97937 8.47184ZM5.17241 0.827586C2.7779 0.827586 0.827586 2.77468 0.827586 5.1711C0.827586 7.56752 2.7779 9.51724 5.17241 9.51724C7.56956 9.51724 9.51724 7.56489 9.51724 5.1711C9.51724 2.77731 7.56956 0.827586 5.17241 0.827586Z" fill="#2F4858"/>
</svg>
